<svg width="95" height="95" viewBox="0 0 95 95" fill="none" xmlns="http://www.w3.org/2000/svg">
<circle cx="47.5" cy="47.5" r="47.5" fill="#C6C6C6"/>
<circle cx="47.5" cy="47.5" r="30.5" fill="white"/>
<path d="M47.5 9C26.2319 9 9 26.2319 9 47.5C9 68.7681 26.2319 86 47.5 86C68.7681 86 86 68.7681 86 47.5C86 26.2319 68.7681 9 47.5 9ZM69.8548 51.8468C69.8548 52.8714 69.0165 53.7097 67.9919 53.7097H53.7097V67.9919C53.7097 69.0165 52.8714 69.8548 51.8468 69.8548H43.1532C42.1286 69.8548 41.2903 69.0165 41.2903 67.9919V53.7097H27.0081C25.9835 53.7097 25.1452 52.8714 25.1452 51.8468V43.1532C25.1452 42.1286 25.9835 41.2903 27.0081 41.2903H41.2903V27.0081C41.2903 25.9835 42.1286 25.1452 43.1532 25.1452H51.8468C52.8714 25.1452 53.7097 25.9835 53.7097 27.0081V41.2903H67.9919C69.0165 41.2903 69.8548 42.1286 69.8548 43.1532V51.8468Z" fill="#C6C6C6"/>
</svg>
