<svg width="24" height="24" viewBox="0 0 24 24" fill="none" xmlns="http://www.w3.org/2000/svg">
<path d="M11.94 19.2C12.36 19.2 12.7152 19.0548 13.0056 18.7644C13.296 18.474 13.4408 18.1192 13.44 17.7C13.4392 17.2808 13.2944 16.9256 13.0056 16.6344C12.7168 16.3432 12.3616 16.1984 11.94 16.2C11.5184 16.2016 11.1636 16.3468 10.8756 16.6356C10.5876 16.9244 10.4424 17.2792 10.44 17.7C10.4376 18.1208 10.5828 18.476 10.8756 18.7656C11.1684 19.0552 11.5232 19.2 11.94 19.2ZM10.86 14.58H13.08C13.08 13.92 13.1552 13.4 13.3056 13.02C13.456 12.64 13.8808 12.12 14.58 11.46C15.1 10.94 15.51 10.4448 15.81 9.9744C16.11 9.504 16.26 8.9392 16.26 8.28C16.26 7.16 15.85 6.3 15.03 5.7C14.21 5.1 13.24 4.8 12.12 4.8C10.98 4.8 10.0552 5.1 9.3456 5.7C8.636 6.3 8.1408 7.02 7.86 7.86L9.83999 8.64C9.93999 8.28 10.1652 7.89 10.5156 7.47C10.866 7.05 11.4008 6.84 12.12 6.84C12.76 6.84 13.24 7.0152 13.56 7.3656C13.88 7.716 14.04 8.1008 14.04 8.52C14.04 8.92 13.92 9.2952 13.68 9.6456C13.44 9.996 13.14 10.3208 12.78 10.62C11.9 11.4 11.36 11.99 11.16 12.39C10.96 12.79 10.86 13.52 10.86 14.58ZM12 24C10.34 24 8.78 23.6852 7.32 23.0556C5.86 22.426 4.59 21.5708 3.51 20.49C2.43 19.4092 1.5752 18.1392 0.945601 16.68C0.316001 15.2208 0.000801518 13.6608 1.51899e-06 12C-0.00079848 10.3392 0.314401 8.7792 0.945601 7.32C1.5768 5.8608 2.4316 4.5908 3.51 3.51C4.5884 2.4292 5.8584 1.57441 7.32 0.945606C8.7816 0.316806 10.3416 0.00160606 12 6.0606e-06C13.6584 -0.00159394 15.2184 0.313606 16.68 0.945606C18.1416 1.57761 19.4116 2.4324 20.49 3.51C21.5684 4.5876 22.4236 5.8576 23.0556 7.32C23.6876 8.7824 24.0024 10.3424 24 12C23.9976 13.6576 23.6824 15.2176 23.0544 16.68C22.4264 18.1424 21.5716 19.4124 20.49 20.49C19.4084 21.5676 18.1384 22.4228 16.68 23.0556C15.2216 23.6884 13.6616 24.0032 12 24Z" fill="black"/>
</svg>
