<svg width="22" height="22" viewBox="0 0 22 22" fill="white" xmlns="http://www.w3.org/2000/svg">
<path d="M3.29102 5.19423C4.07578 5.12602 5.0683 5.12602 6.40176 5.12602H8.2642C10.8718 5.12602 12.1757 5.12602 13.1717 5.63614C14.0478 6.08485 14.7601 6.80083 15.2065 7.68147C15.7139 8.68263 15.7139 9.99322 15.7139 12.6144V15.1406C15.7139 15.4024 15.7139 15.5333 15.7087 15.6439C15.6273 17.3726 14.6177 18.8534 13.1686 19.595L14.605 20.6196C15.5426 21.2884 16.7748 20.3226 16.3468 19.2542C16.0436 18.4974 16.6018 17.6743 17.418 17.6743H18.0483C20.2306 17.6743 21.9996 15.9077 21.9996 13.7284V9.3049C21.9996 6.37535 21.9996 4.91058 21.4287 3.79164C20.9266 2.80739 20.1252 2.00718 19.1396 1.50567C18.0191 0.935547 16.5523 0.935547 13.6187 0.935547H11.5235C8.58985 0.935547 7.12304 0.935547 6.00256 1.50567C5.01695 2.00718 4.21561 2.80739 3.71343 3.79164C3.50695 4.1963 3.37515 4.64619 3.29102 5.19423Z" fill="white"/>
<path fill-rule="evenodd" clip-rule="evenodd" d="M14.2231 8.42864C14.6672 9.31201 14.6672 10.4684 14.6672 12.7813V15.0103C14.6672 15.2412 14.6672 15.3567 14.6625 15.4543C14.5632 17.5815 12.8843 19.2833 10.7857 19.384C10.6895 19.3886 10.5624 19.3886 10.3082 19.3886L10.243 19.3887C9.41166 19.394 8.60187 19.6571 7.92232 20.1425L7.87911 20.1737L5.75184 21.7139C5.0226 22.2419 4.06432 21.4793 4.39715 20.636C4.63291 20.0385 4.19883 19.3886 3.56401 19.3886H3.07369C1.37641 19.3886 0.000488281 17.9939 0.000488281 16.2735V12.7813C0.000488281 10.4684 0.000488281 9.31201 0.444536 8.42864C0.835131 7.6516 1.45839 7.01985 2.22497 6.62393C3.09646 6.17383 4.23731 6.17383 6.519 6.17383H8.14864C10.4303 6.17383 11.5712 6.17383 12.4426 6.62393C13.2093 7.01985 13.8325 7.6516 14.2231 8.42864ZM4.19096 14.5548C4.76954 14.5548 5.23858 14.0858 5.23858 13.5072C5.23858 12.9286 4.76954 12.4595 4.19096 12.4595C3.61239 12.4595 3.14335 12.9286 3.14335 13.5072C3.14335 14.0858 3.61239 14.5548 4.19096 14.5548ZM8.38144 13.5072C8.38144 14.0858 7.9124 14.5548 7.33382 14.5548C6.75524 14.5548 6.2862 14.0858 6.2862 13.5072C6.2862 12.9286 6.75524 12.4595 7.33382 12.4595C7.9124 12.4595 8.38144 12.9286 8.38144 13.5072ZM10.4767 14.5548C11.0553 14.5548 11.5243 14.0858 11.5243 13.5072C11.5243 12.9286 11.0553 12.4595 10.4767 12.4595C9.89809 12.4595 9.42906 12.9286 9.42906 13.5072C9.42906 14.0858 9.89809 14.5548 10.4767 14.5548Z" fill="white"/>
</svg>
