<svg width="1428" height="579" viewBox="0 0 1428 579" fill="none" xmlns="http://www.w3.org/2000/svg">
<g clip-path="url(#clip0_5574_449)">
<g clip-path="url(#clip1_5574_449)">
<mask id="mask0_5574_449" style="mask-type:luminance" maskUnits="userSpaceOnUse" x="0" y="0" width="1428" height="624">
<path d="M1427.06 0.36084H0.452148V624H1427.06V0.36084Z" fill="white"/>
</mask>
<g mask="url(#mask0_5574_449)">
<path d="M374.284 186.747C374.284 289.689 290.597 373.135 187.368 373.135C155.001 373.135 124.556 364.935 98.0109 350.498C39.8877 318.891 0.452148 257.413 0.452148 186.747C0.452148 83.8101 84.1371 0.36084 187.366 0.36084C290.597 0.36084 374.284 83.8101 374.284 186.747Z" fill="#20B276"/>
<path d="M261.97 239.761C242.191 260.086 218.188 270.255 189.967 270.255C172.743 270.255 156.739 267.348 141.737 258.903L141.557 367.132L140.135 366.749L139.255 366.524L138.216 365.96L137.727 365.077L137.276 364.079L137.776 363.454L88.2832 304.608L88.2977 165.504C88.2977 136.52 98.1855 111.903 117.966 91.6503C137.741 71.396 161.743 61.271 189.967 61.271C218.188 61.271 242.19 71.432 261.97 91.7613C281.745 112.087 291.636 136.756 291.636 165.762C291.636 194.772 281.745 219.436 261.97 239.761ZM224.217 130.531C214.827 120.871 203.41 116.043 189.967 116.043C176.521 116.043 165.104 120.871 155.717 130.531C146.326 140.19 141.63 151.932 141.63 165.765C141.63 179.594 146.324 191.336 155.717 200.995C165.104 210.656 176.521 215.487 189.967 215.487C203.41 215.487 214.827 210.656 224.217 200.995C233.607 191.336 238.302 179.594 238.302 165.765C238.302 151.932 233.607 140.189 224.217 130.531Z" fill="#147F52"/>
<path d="M258.079 235.919C238.301 256.246 214.301 266.413 186.078 266.413C168.853 266.413 152.743 262.191 137.743 253.745L137.727 366.494C137.727 366.494 134.076 365.491 129.324 363.961C128.152 363.583 126.969 363.179 125.73 362.742C125.14 362.533 124.853 362.411 124.246 362.236C122.691 361.79 120.721 360.928 119.202 360.339C114.099 358.358 109.965 356.469 109.865 356.423C109.765 356.376 95.1591 349.427 93.5121 348.402C92.037 347.482 90.7237 346.762 89.5983 345.957C89.2385 345.7 88.9669 345.517 88.626 345.284C85.9503 343.45 84.455 342.397 84.455 342.397L84.4102 161.665C84.4102 132.679 94.298 108.062 114.078 87.8109C133.855 67.5552 157.855 57.4316 186.079 57.4316C214.302 57.4316 238.302 67.5926 258.08 87.9219C277.857 108.248 287.75 132.917 287.75 161.921C287.747 190.928 277.856 215.592 258.079 235.919ZM220.328 126.689C210.936 117.029 199.521 112.201 186.076 112.201C172.63 112.201 161.214 117.029 151.826 126.689C142.435 136.348 137.741 148.09 137.741 161.921C137.741 175.752 142.435 187.493 151.826 197.152C161.214 206.816 172.63 211.645 186.076 211.645C199.519 211.645 210.936 206.816 220.328 197.152C229.716 187.493 234.413 175.752 234.413 161.921C234.413 148.09 229.716 136.348 220.328 126.689Z" fill="white"/>
<path d="M425.564 61.8422L425.565 61.842C428.182 59.2284 431.193 57.937 434.62 57.937H501.595C523.726 57.937 542.573 65.7164 558.162 81.2782C573.751 96.8398 581.54 115.654 581.54 137.747C581.54 159.718 573.74 178.501 558.13 194.128C542.519 209.752 523.647 217.556 501.486 217.556H461.206C456.851 217.556 453.676 216.458 451.586 214.347C449.495 212.236 448.405 209.028 448.405 204.626C448.405 200.288 449.494 197.127 451.584 195.046C453.674 192.964 456.852 191.88 461.212 191.88H501.504C516.42 191.88 529.209 186.598 539.837 176.045C550.466 165.49 555.788 152.744 555.788 137.841C555.788 122.94 550.466 110.167 539.838 99.5485L539.838 99.5484C529.21 88.9344 516.421 83.6168 501.504 83.6168H447.905H447.405V84.1168V204.626V311.521C447.405 315.922 446.31 319.131 444.207 321.242C442.104 323.353 438.909 324.452 434.528 324.452C430.146 324.452 426.952 323.353 424.849 321.241C422.746 319.128 421.651 315.917 421.651 311.513V70.877C421.651 67.4619 422.943 64.4574 425.564 61.8422Z" fill="#3B3938" stroke="#3B3938"/>
<path d="M733.754 311.008H733.751V311.508C733.751 315.912 732.648 319.124 730.531 321.238C728.413 323.352 725.196 324.453 720.784 324.453C716.37 324.453 713.169 323.354 711.083 321.245C708.997 319.136 707.938 315.931 707.999 311.529L708.013 310.511L707.199 311.122C695.353 320.014 682.05 324.453 667.276 324.453C648.959 324.453 633.278 317.976 620.211 305.004L619.859 305.359L620.211 305.004C607.142 292.034 600.616 276.43 600.616 258.165C600.616 239.902 607.142 224.269 620.212 211.235C633.279 198.205 648.96 191.694 667.276 191.694C682.05 191.694 695.353 196.138 707.199 205.026L707.999 205.627V204.626C707.999 193.405 704.008 183.792 696.045 175.81L696.045 175.81C688.079 167.83 678.481 163.833 667.278 163.833C659.406 163.833 651.527 166.577 643.654 172.017L643.654 172.017C639.753 174.713 636.608 176.727 634.214 178.065C633.017 178.735 632.017 179.23 631.21 179.556C630.39 179.888 629.816 180.025 629.455 180.025C625.907 180.025 622.803 178.698 620.122 176.014L620.122 176.014C617.44 173.331 616.115 170.221 616.115 166.666C616.115 163.875 617.45 160.848 620.241 157.566L620.243 157.563C631.075 144.644 646.728 138.156 667.278 138.156C685.595 138.156 701.244 144.644 714.251 157.625C727.258 170.608 733.754 186.227 733.754 204.511V311.008ZM638.352 229.322L638.352 229.322C630.369 237.284 626.371 246.878 626.371 258.075C626.371 269.273 630.369 278.867 638.352 286.828C646.335 294.789 655.957 298.775 667.185 298.775C678.411 298.775 688.033 294.789 696.015 286.828C703.999 278.867 707.999 269.273 707.999 258.075C707.999 246.878 703.999 237.284 696.015 229.322L695.662 229.676L696.015 229.322C688.033 221.362 678.411 217.373 667.185 217.373C655.955 217.373 646.335 221.362 638.352 229.322Z" fill="#3B3938" stroke="#3B3938"/>
<path d="M797.703 297.169L797.349 297.523L797.703 297.169C779.467 278.975 770.358 257.009 770.358 231.242V70.877C770.358 66.4754 771.461 63.2651 773.579 61.1517C775.697 59.038 778.915 57.937 783.328 57.937C787.678 57.937 790.848 59.0377 792.935 61.1519C795.023 63.2672 796.111 66.4821 796.111 70.8914V165.806V167.028L796.968 166.157C815.324 147.485 837.522 138.155 863.586 138.155C889.407 138.155 911.419 147.251 929.656 165.451C947.891 183.654 957.001 205.564 957.001 231.213C957.001 256.986 947.89 278.958 929.657 297.16C911.421 315.361 889.408 324.455 863.587 324.455C837.89 324.455 815.937 315.365 797.703 297.169ZM911.359 278.918L911.005 278.564L911.359 278.918C924.612 265.68 931.247 249.771 931.247 231.213C931.247 212.778 924.611 196.931 911.359 183.695L911.005 184.049L911.359 183.695C898.103 170.459 882.172 163.833 863.587 163.833C845.124 163.833 829.254 170.46 816.001 183.695C802.746 196.931 796.112 212.778 796.112 231.213C796.112 249.771 802.745 265.68 816.001 278.918C829.254 292.153 845.125 298.776 863.587 298.776C882.172 298.776 898.103 292.154 911.359 278.918Z" fill="#3B3938" stroke="#3B3938"/>
<path d="M1010.69 165.806V167.028L1011.55 166.157C1029.9 147.485 1052.11 138.155 1078.17 138.155C1103.99 138.155 1126 147.251 1144.24 165.451C1162.47 183.654 1171.58 205.564 1171.58 231.213C1171.58 256.986 1162.47 278.958 1144.24 297.16C1126 315.361 1103.99 324.455 1078.17 324.455C1052.47 324.455 1030.52 315.365 1012.28 297.169L1011.93 297.523L1012.28 297.169C994.047 278.975 984.938 257.009 984.938 231.242V70.877C984.938 66.4754 986.041 63.2651 988.159 61.1517C990.277 59.038 993.494 57.937 997.907 57.937C1002.26 57.937 1005.43 59.0377 1007.51 61.1519C1009.6 63.2673 1010.69 66.4822 1010.69 70.8914V165.806ZM1030.58 183.695L1030.93 184.049L1030.58 183.695C1017.33 196.931 1010.69 212.778 1010.69 231.213C1010.69 249.771 1017.32 265.68 1030.58 278.918C1043.83 292.153 1059.71 298.776 1078.17 298.776C1096.75 298.776 1112.68 292.154 1125.93 278.918C1139.2 265.68 1145.83 249.771 1145.83 231.213C1145.83 212.778 1139.19 196.931 1125.93 183.695C1112.68 170.46 1096.75 163.833 1078.17 163.833C1059.71 163.833 1043.83 170.46 1030.58 183.695Z" fill="#3B3938" stroke="#3B3938"/>
<path d="M1265.49 311.522C1265.49 315.923 1264.39 319.131 1262.27 321.242C1260.15 323.354 1256.94 324.453 1252.53 324.453C1238.03 324.453 1225.57 319.26 1215.14 308.857C1204.73 298.456 1199.52 285.972 1199.52 271.375V70.877C1199.52 66.4754 1200.62 63.2652 1202.74 61.1517C1204.86 59.038 1208.08 57.937 1212.49 57.937C1216.84 57.937 1220.01 59.037 1222.09 61.1495C1224.18 63.2632 1225.27 66.4751 1225.27 70.8799V271.394C1225.27 278.893 1227.97 285.343 1233.36 290.713C1238.73 296.082 1245.13 298.776 1252.52 298.776C1256.94 298.776 1260.15 299.861 1262.27 301.944C1264.39 304.025 1265.49 307.186 1265.49 311.522Z" fill="#3B3938" stroke="#3B3938"/>
<path d="M1426.56 338.839H1426.57C1426.45 356.78 1419.94 372.197 1407.06 385.121C1394.05 398.156 1378.41 404.673 1360.09 404.673C1348.61 404.673 1337.57 401.689 1326.94 395.721L1326.93 395.72C1315.94 389.626 1307.83 381.662 1302.59 371.826C1301.27 369.168 1300.62 366.857 1300.62 364.88C1300.62 361.476 1302 358.512 1304.8 355.959L1304.8 355.958C1307.6 353.395 1310.72 352.133 1314.15 352.133C1314.8 352.133 1315.65 352.374 1316.69 352.916C1317.73 353.455 1318.94 354.273 1320.32 355.38C1323.07 357.594 1326.46 360.93 1330.48 365.398C1338.62 374.451 1348.5 378.994 1360.09 378.994C1371.29 378.994 1380.89 375.014 1388.85 367.074L1388.85 367.074C1396.82 359.129 1400.81 349.558 1400.81 338.386V311.523V310.523L1400.01 311.123C1388.17 320.015 1374.86 324.455 1360.09 324.455C1341.77 324.455 1326.12 317.97 1313.11 304.989C1300.11 292.009 1293.61 276.388 1293.61 258.102V150.919C1293.61 146.578 1294.71 143.414 1296.83 141.33C1298.95 139.245 1302.17 138.158 1306.58 138.158C1310.93 138.158 1314.11 139.244 1316.19 141.328C1318.28 143.411 1319.37 146.577 1319.37 150.919V258.122C1319.37 269.31 1323.35 278.892 1331.32 286.844C1339.28 294.798 1348.89 298.778 1360.09 298.778C1371.29 298.778 1380.89 294.798 1388.85 286.844C1396.82 278.892 1400.81 269.309 1400.81 258.122V150.919C1400.81 146.578 1401.91 143.414 1404.03 141.33C1406.15 139.245 1409.37 138.158 1413.78 138.158C1418.13 138.158 1421.3 139.243 1423.39 141.326C1425.48 143.408 1426.56 146.572 1426.56 150.913V338.339V338.839Z" fill="#3B3938" stroke="#3B3938"/>
</g>
</g>
<path d="M561.689 550.083L561.683 550.089C555.506 557.248 546.886 563.039 535.797 567.445C525.373 571.485 515.068 573.5 504.881 573.5C482.645 573.5 463.676 565.691 447.942 550.061C432.207 534.431 424.348 515.586 424.348 493.499C424.348 471.488 432.207 452.68 447.942 437.05C463.75 421.419 482.721 413.61 504.881 413.61C515.068 413.61 525.373 415.627 535.797 419.666C546.886 424.073 555.506 429.825 561.683 436.912C563.351 438.855 564.126 440.626 564.126 442.231C564.126 444.301 563.334 446.134 561.71 447.745L561.709 447.745C560.165 449.281 558.359 450.038 556.266 450.038C554.726 450.038 552.981 449.271 551.023 447.614C549.377 446.129 546.846 443.984 543.43 441.182L543.423 441.176L543.415 441.17C532.399 432.832 519.548 428.666 504.881 428.666C486.915 428.666 471.518 435.03 458.718 447.745C445.991 460.389 439.622 475.65 439.622 493.499C439.622 511.423 445.991 526.757 458.717 539.474L458.719 539.476C471.519 552.118 486.916 558.444 504.881 558.444C519.548 558.444 532.399 554.28 543.415 545.942L543.432 545.929L543.449 545.915C545.073 544.446 547.593 542.312 551.011 539.506L551.016 539.502C552.978 537.842 554.724 537.074 556.266 537.074C558.352 537.074 560.156 537.862 561.702 539.467L561.709 539.475L561.717 539.482C563.335 541.02 564.126 542.811 564.126 544.879C564.126 546.482 563.353 548.215 561.689 550.083Z" fill="white" stroke="white"/>
<path d="M564.626 544.879C564.626 546.65 563.771 548.496 562.062 550.415C555.82 557.65 547.126 563.482 535.98 567.91C525.503 571.971 515.136 574 504.881 574C482.514 574 463.418 566.139 447.59 550.415C431.761 534.692 423.848 515.72 423.848 493.499C423.848 471.354 431.761 452.418 447.59 436.695C463.491 420.971 482.589 413.11 504.881 413.11C515.136 413.11 525.503 415.141 535.98 419.2C547.126 423.63 555.82 429.424 562.062 436.585C563.771 438.577 564.626 440.46 564.626 442.231C564.626 444.446 563.771 446.404 562.062 448.1C560.428 449.725 558.496 450.538 556.266 450.538C554.557 450.538 552.699 449.688 550.693 447.99C549.058 446.513 546.532 444.373 543.113 441.568C532.19 433.3 519.446 429.166 504.881 429.166C487.048 429.166 471.777 435.477 459.071 448.1C446.438 460.65 440.122 475.784 440.122 493.499C440.122 511.29 446.438 526.497 459.071 539.12C471.777 551.67 487.048 557.944 504.881 557.944C519.446 557.944 532.19 553.812 543.113 545.544C544.747 544.066 547.275 541.926 550.693 539.12C552.699 537.424 554.557 536.574 556.266 536.574C558.496 536.574 560.428 537.424 562.062 539.12C563.771 540.745 564.626 542.664 564.626 544.879Z" fill="#3B3938" stroke="#3B3938" stroke-width="5"/>
<path d="M689.536 557.115L689.535 557.116C678.727 568.045 665.721 573.5 650.49 573.5C635.259 573.5 622.216 568.045 611.334 557.116C600.526 546.188 595.126 532.999 595.126 517.522C595.126 502.119 600.525 488.968 611.333 478.04C622.216 467.111 635.259 461.654 650.49 461.654C665.72 461.654 678.727 467.111 689.535 478.039L689.536 478.04C700.418 488.969 705.855 502.12 705.855 517.522C705.855 532.998 700.418 546.187 689.536 557.115ZM621.927 488.765L621.926 488.767C614.079 496.775 610.149 506.368 610.149 517.522C610.149 528.748 614.079 538.38 621.926 546.389L621.927 546.391C629.849 554.4 639.379 558.411 650.49 558.411C661.6 558.411 671.094 554.4 678.943 546.389C686.864 538.381 690.83 528.749 690.83 517.522C690.83 506.367 686.863 496.774 678.943 488.766C671.094 480.756 661.6 476.743 650.49 476.743C639.379 476.743 629.849 480.756 621.927 488.765Z" fill="white" stroke="white"/>
<path d="M706.355 517.522C706.355 533.13 700.866 546.445 689.891 557.468C678.99 568.49 665.855 574 650.49 574C635.124 574 621.953 568.49 610.978 557.468C600.077 546.445 594.626 533.13 594.626 517.522C594.626 501.987 600.077 488.71 610.978 477.688C621.953 466.665 635.124 461.154 650.49 461.154C665.855 461.154 678.99 466.665 689.891 477.688C700.866 488.71 706.355 501.987 706.355 517.522ZM690.33 517.522C690.33 506.499 686.416 497.032 678.586 489.116C670.831 481.201 661.465 477.243 650.49 477.243C639.515 477.243 630.112 481.201 622.283 489.116C614.527 497.032 610.649 506.499 610.649 517.522C610.649 528.618 614.527 538.123 622.283 546.039C630.112 553.955 639.515 557.911 650.49 557.911C661.465 557.911 670.831 553.955 678.586 546.039C686.416 538.123 690.33 528.618 690.33 517.522Z" fill="#3B3938" stroke="#3B3938" stroke-width="5"/>
<path d="M752.011 469.144V470.146L752.811 469.544C759.805 464.284 767.739 461.654 776.632 461.654C787.488 461.654 796.805 465.557 804.606 473.38L804.608 473.382C812.406 481.129 816.299 490.471 816.299 501.433V565.901C816.299 568.524 815.646 570.4 814.426 571.622C813.207 572.845 811.337 573.5 808.721 573.5C806.145 573.5 804.304 572.846 803.103 571.625C801.9 570.402 801.254 568.526 801.254 565.901V501.433C801.254 494.641 798.802 488.818 793.916 483.99C789.102 479.165 783.334 476.743 776.632 476.743C769.859 476.743 764.052 479.164 759.238 483.991C754.423 488.82 752.011 494.643 752.011 501.433V565.901C752.011 568.524 751.357 570.4 750.137 571.622C748.917 572.845 747.048 573.5 744.433 573.5C741.818 573.5 739.948 572.845 738.728 571.622C737.508 570.4 736.854 568.524 736.854 565.901V469.144C736.854 466.56 737.507 464.712 738.726 463.507C739.945 462.301 741.816 461.654 744.433 461.654C747.049 461.654 748.92 462.301 750.139 463.507C751.358 464.712 752.011 466.56 752.011 469.144Z" fill="white" stroke="white"/>
<path d="M816.799 565.901C816.799 571.301 814.108 574 808.721 574C803.411 574 800.754 571.301 800.754 565.901V501.433C800.754 494.776 798.357 489.08 793.563 484.344C788.841 479.611 783.199 477.243 776.632 477.243C769.993 477.243 764.313 479.611 759.592 484.344C754.87 489.08 752.511 494.776 752.511 501.433V565.901C752.511 571.301 749.817 574 744.433 574C739.048 574 736.354 571.301 736.354 565.901V469.144C736.354 463.818 739.048 461.154 744.433 461.154C749.817 461.154 752.511 463.818 752.511 469.144C759.592 463.818 767.632 461.154 776.632 461.154C787.624 461.154 797.067 465.112 804.96 473.027C812.852 480.868 816.799 490.337 816.799 501.433V565.901Z" fill="#3B3938" stroke="#3B3938" stroke-width="5"/>
<path d="M869.683 483.991L869.683 483.991C864.869 488.82 862.455 494.643 862.455 501.433V565.901C862.455 568.524 861.801 570.4 860.581 571.622C859.362 572.845 857.492 573.5 854.877 573.5C852.262 573.5 850.392 572.845 849.173 571.622C847.953 570.4 847.299 568.524 847.299 565.901V469.144C847.299 466.56 847.952 464.712 849.17 463.507C850.39 462.301 852.26 461.654 854.877 461.654C857.494 461.654 859.364 462.301 860.584 463.507C861.802 464.712 862.455 466.56 862.455 469.144V470.146L863.255 469.544C870.249 464.284 878.185 461.654 887.078 461.654C897.933 461.654 907.249 465.557 915.051 473.38L915.052 473.382C922.852 481.129 926.744 490.47 926.744 501.433V565.901C926.744 568.524 926.09 570.4 924.871 571.622C923.652 572.845 921.782 573.5 919.167 573.5C916.591 573.5 914.749 572.846 913.548 571.625C912.344 570.402 911.699 568.526 911.699 565.901V501.433C911.699 494.641 909.248 488.818 904.36 483.99C899.546 479.165 893.778 476.743 887.078 476.743C880.304 476.743 874.496 479.164 869.683 483.991Z" fill="white" stroke="white"/>
<path d="M927.244 565.901C927.244 571.301 924.552 574 919.167 574C913.856 574 911.199 571.301 911.199 565.901V501.433C911.199 494.776 908.803 489.08 904.007 484.344C899.285 479.611 893.643 477.243 887.078 477.243C880.438 477.243 874.757 479.611 870.037 484.344C865.316 489.08 862.955 494.776 862.955 501.433V565.901C862.955 571.301 860.262 574 854.877 574C849.492 574 846.799 571.301 846.799 565.901V469.144C846.799 463.818 849.492 461.154 854.877 461.154C860.262 461.154 862.955 463.818 862.955 469.144C870.037 463.818 878.078 461.154 887.078 461.154C898.068 461.154 907.511 465.112 915.405 473.027C923.298 480.868 927.244 490.337 927.244 501.433V565.901Z" fill="#3B3938" stroke="#3B3938" stroke-width="5"/>
<path d="M1050.69 475.972L1050.69 475.973C1058.85 482.387 1062.78 488.323 1062.78 493.777C1062.78 495.14 1062.46 496.315 1061.85 497.318C1061.24 498.322 1060.32 499.181 1059.05 499.887L1059.05 499.887L1059.04 499.891L983.197 543.831L982.672 544.136L983.072 544.593C991.127 553.8 1001.29 558.411 1013.52 558.411C1026.34 558.411 1036.58 553.729 1044.2 544.356L1044.22 544.34L1044.23 544.323C1045.18 542.928 1046.69 540.864 1048.75 538.129C1050.84 535.374 1052.93 534.111 1054.98 534.111C1057.06 534.111 1058.9 534.838 1060.51 536.311L1060.51 536.311C1062.1 537.772 1062.89 539.526 1062.89 541.6C1062.89 542.759 1062.55 544.088 1061.83 545.594C1057.39 554.003 1050.64 560.775 1041.58 565.909C1032.58 570.974 1023.23 573.5 1013.52 573.5C998.177 573.5 985.036 568.044 974.073 557.115C963.184 546.186 957.744 532.998 957.744 517.522C957.744 502.12 963.183 488.97 974.073 478.041C985.036 467.112 998.177 461.654 1013.52 461.654C1018.99 461.654 1024.72 462.678 1030.72 464.734C1037.51 467.081 1044.17 470.824 1050.69 475.972ZM1043.85 491.324L1044.37 491.018L1043.97 490.56C1035.84 481.356 1025.68 476.743 1013.52 476.743C1002.33 476.743 992.733 480.755 984.753 488.764L984.751 488.765C976.847 496.773 972.887 506.367 972.887 517.522C972.887 522.012 973.559 526.354 974.9 530.545L975.09 531.137L975.627 530.825L1043.85 491.324Z" fill="white" stroke="white"/>
<path d="M1063.39 541.6C1063.39 542.857 1063.02 544.264 1062.28 545.818C1057.78 554.324 1050.97 561.166 1041.83 566.344C1032.76 571.449 1023.33 574 1013.52 574C998.043 574 984.775 568.49 973.719 557.468C962.736 546.445 957.244 533.13 957.244 517.522C957.244 501.987 962.736 488.71 973.719 477.688C984.775 466.665 998.043 461.154 1013.52 461.154C1019.05 461.154 1024.84 462.189 1030.88 464.261C1037.74 466.628 1044.44 470.401 1051 475.58C1059.19 482.015 1063.28 488.081 1063.28 493.777C1063.28 496.662 1061.95 498.844 1059.3 500.324L983.448 544.264C991.408 553.362 1001.43 557.911 1013.52 557.911C1026.2 557.911 1036.3 553.289 1043.82 544.041C1044.77 542.636 1046.29 540.564 1048.35 537.827C1050.49 535.016 1052.7 533.611 1054.98 533.611C1057.19 533.611 1059.15 534.389 1060.84 535.942C1062.54 537.494 1063.39 539.381 1063.39 541.6ZM1043.6 490.891C1035.56 481.794 1025.54 477.243 1013.52 477.243C1002.47 477.243 992.994 481.201 985.107 489.116C977.294 497.032 973.387 506.499 973.387 517.522C973.387 521.961 974.051 526.252 975.376 530.393L1043.6 490.891Z" fill="#3B3938" stroke="#3B3938" stroke-width="5"/>
<path d="M1120.84 488.764L1120.84 488.766C1112.95 496.774 1109 506.367 1109 517.522C1109 528.749 1112.95 538.381 1120.84 546.39L1120.84 546.392C1128.8 554.4 1138.38 558.411 1149.55 558.411C1157.02 558.411 1164.4 556.007 1171.68 551.227L1171.68 551.227C1175.32 548.824 1178.14 547.026 1180.13 545.83C1181.13 545.231 1181.92 544.788 1182.49 544.495C1182.78 544.348 1183.01 544.244 1183.18 544.177C1183.34 544.117 1183.41 544.102 1183.43 544.099C1183.43 544.098 1183.43 544.098 1183.43 544.098C1185.41 544.098 1187.16 544.882 1188.7 546.494L1188.7 546.494L1188.71 546.501C1190.32 548.122 1191.1 549.922 1191.1 551.92C1191.1 553.537 1190.36 555.314 1188.79 557.26C1184.59 562.21 1178.63 566.198 1170.89 569.207L1170.89 569.208C1163.66 572.073 1156.55 573.5 1149.55 573.5C1134.24 573.5 1121.13 568.044 1110.18 557.115C1099.32 546.186 1093.89 532.998 1093.89 517.522C1093.89 502.12 1099.32 488.97 1110.18 478.041C1121.13 467.111 1134.24 461.654 1149.55 461.654C1156.55 461.654 1163.66 463.083 1170.89 465.946C1178.63 469.031 1184.59 473.058 1188.79 478.011L1188.79 478.011L1188.8 478.018C1190.44 479.889 1191.21 481.626 1191.21 483.236C1191.21 485.311 1190.42 487.147 1188.82 488.764C1187.29 490.301 1185.5 491.057 1183.43 491.057C1183.44 491.057 1183.44 491.057 1183.43 491.055C1183.41 491.049 1183.34 491.033 1183.21 490.982C1183.05 490.916 1182.83 490.813 1182.54 490.668C1181.98 490.38 1181.2 489.942 1180.21 489.352C1178.23 488.174 1175.43 486.403 1171.79 484.038C1164.51 479.185 1157.1 476.743 1149.55 476.743C1138.38 476.743 1128.8 480.755 1120.84 488.764Z" fill="white" stroke="white"/>
<path d="M1191.71 483.236C1191.71 485.455 1190.86 487.415 1189.17 489.116C1187.55 490.743 1185.64 491.557 1183.43 491.557C1182.77 491.557 1178.8 489.19 1171.51 484.456C1164.3 479.647 1156.98 477.243 1149.55 477.243C1138.52 477.243 1129.07 481.201 1121.2 489.116C1113.4 497.032 1109.5 506.499 1109.5 517.522C1109.5 528.618 1113.4 538.123 1121.2 546.039C1129.07 553.955 1138.52 557.911 1149.55 557.911C1156.91 557.911 1164.19 555.545 1171.4 550.809C1178.69 546.002 1182.7 543.598 1183.43 543.598C1185.57 543.598 1187.44 544.449 1189.06 546.149C1190.75 547.851 1191.6 549.774 1191.6 551.92C1191.6 553.695 1190.79 555.581 1189.17 557.579C1184.9 562.61 1178.87 566.641 1171.07 569.673C1163.79 572.558 1156.62 574 1149.55 574C1134.11 574 1120.86 568.49 1109.83 557.468C1098.87 546.445 1093.39 533.13 1093.39 517.522C1093.39 501.987 1098.87 488.71 1109.83 477.688C1120.86 466.665 1134.11 461.154 1149.55 461.154C1156.62 461.154 1163.79 462.597 1171.07 465.481C1178.87 468.588 1184.9 472.658 1189.17 477.688C1190.86 479.611 1191.71 481.461 1191.71 483.236Z" fill="#3B3938" stroke="#3B3938" stroke-width="5"/>
<path d="M1246.33 477.444V476.944H1245.83H1229.79C1227.17 476.944 1225.3 476.29 1224.08 475.07C1222.86 473.85 1222.21 471.979 1222.21 469.362C1222.21 466.783 1222.86 464.94 1224.08 463.737C1225.3 462.534 1227.17 461.888 1229.79 461.888H1245.83H1246.33V461.388V421.194C1246.33 418.576 1246.98 416.705 1248.2 415.484C1249.42 414.264 1251.29 413.61 1253.91 413.61C1256.52 413.61 1258.39 414.264 1259.61 415.484C1260.83 416.705 1261.49 418.576 1261.49 421.194V461.388V461.888H1261.99H1278.03C1280.65 461.888 1282.52 462.534 1283.74 463.737C1284.96 464.94 1285.61 466.783 1285.61 469.362C1285.61 471.979 1284.95 473.85 1283.74 475.07C1282.52 476.29 1280.65 476.944 1278.03 476.944H1261.99H1261.49V477.444V541.778C1261.49 546.337 1263.09 550.266 1266.27 553.533L1266.28 553.537C1269.54 556.803 1273.47 558.444 1278.03 558.444C1281.78 558.444 1285.35 557.065 1288.75 554.348C1290.39 553.029 1291.81 552.052 1292.99 551.407C1294.18 550.756 1295.09 550.472 1295.74 550.472C1297.76 550.472 1299.2 551.12 1300.15 552.354C1301.13 553.612 1301.65 555.559 1301.65 558.276C1301.65 560.918 1300.98 563.217 1299.64 565.194C1298.29 567.174 1296.27 568.858 1293.52 570.231C1289.18 572.405 1284.02 573.5 1278.03 573.5C1269.31 573.5 1261.84 570.416 1255.59 564.235C1249.41 557.979 1246.33 550.503 1246.33 541.778V477.444Z" fill="white" stroke="white"/>
<path d="M1302.15 558.276C1302.15 563.74 1299.35 567.874 1293.74 570.678C1289.32 572.893 1284.08 574 1278.03 574C1269.18 574 1261.58 570.863 1255.24 564.589C1248.97 558.24 1245.83 550.636 1245.83 541.778V477.444H1229.79C1224.4 477.444 1221.71 474.75 1221.71 469.362C1221.71 464.046 1224.4 461.388 1229.79 461.388H1245.83V421.194C1245.83 415.804 1248.52 413.11 1253.91 413.11C1259.29 413.11 1261.99 415.804 1261.99 421.194V461.388H1278.03C1283.42 461.388 1286.11 464.046 1286.11 469.362C1286.11 474.75 1283.42 477.444 1278.03 477.444H1261.99V541.778C1261.99 546.207 1263.54 550.01 1266.63 553.184C1269.81 556.357 1273.6 557.944 1278.03 557.944C1281.64 557.944 1285.11 556.616 1288.43 553.958C1291.75 551.301 1294.19 549.972 1295.74 549.972C1300.01 549.972 1302.15 552.74 1302.15 558.276Z" fill="#3B3938" stroke="#3B3938" stroke-width="5"/>
</g>
<defs>
<clipPath id="clip0_5574_449">
<rect width="1428" height="579" fill="white"/>
</clipPath>
<clipPath id="clip1_5574_449">
<rect width="1428" height="498" fill="white"/>
</clipPath>
</defs>
</svg>
