<svg width="414" height="153" viewBox="0 0 414 153" fill="none" xmlns="http://www.w3.org/2000/svg">
<g clip-path="url(#clip0_1112_4432)">
<mask id="mask0_1112_4432" style="mask-type:luminance" maskUnits="userSpaceOnUse" x="0" y="0" width="394" height="113">
<path d="M393.616 0H0V112.177H393.616V0Z" fill="white"/>
</mask>
<g mask="url(#mask0_1112_4432)">
<path d="M103.144 51.6492C103.144 80.1753 80.054 103.299 51.5721 103.299C42.6417 103.299 34.2416 101.027 26.9175 97.026C10.8807 88.2674 0 71.2314 0 51.6492C0 23.1245 23.0896 0 51.5715 0C80.054 0 103.144 23.1245 103.144 51.6492Z" fill="#20B276"/>
<path d="M72.1563 66.3401C66.6991 71.9723 60.0764 74.7902 52.2899 74.7902C47.5377 74.7902 43.122 73.9847 38.9828 71.6445L38.9331 101.636L38.5408 101.53L38.298 101.467L38.0113 101.311L37.8764 101.066L37.7519 100.79L37.8899 100.616L24.2344 84.3097L24.2384 45.7628C24.2384 37.7311 26.9665 30.9095 32.4241 25.2973C37.8802 19.6846 44.5026 16.8789 52.2899 16.8789C60.0764 16.8789 66.6988 19.6946 72.1563 25.328C77.6124 30.9605 80.3415 37.7965 80.3415 45.8343C80.3415 53.8732 77.6124 60.7078 72.1563 66.3401ZM61.7399 36.0715C59.1491 33.3947 55.999 32.0568 52.2899 32.0568C48.58 32.0568 45.43 33.3947 42.84 36.0715C40.2489 38.7481 38.9533 42.0019 38.9533 45.8352C38.9533 49.6673 40.2484 52.9211 42.84 55.5977C45.43 58.2748 48.58 59.6135 52.2899 59.6135C55.999 59.6135 59.1491 58.2748 61.7399 55.5977C64.3307 52.9211 65.6261 49.6673 65.6261 45.8352C65.6261 42.0019 64.3307 38.7478 61.7399 36.0715Z" fill="#147F52"/>
<path d="M71.0811 65.2749C65.6242 70.9077 59.0023 73.725 51.2153 73.725C46.4628 73.725 42.0178 72.5551 37.8792 70.2146L37.8748 101.458C37.8748 101.458 36.8674 101.18 35.5563 100.756C35.2329 100.652 34.9065 100.54 34.5647 100.419C34.4019 100.361 34.3227 100.327 34.1552 100.278C33.7262 100.155 33.1826 99.9159 32.7635 99.7527C31.3556 99.2038 30.215 98.6803 30.1874 98.6676C30.1598 98.6545 26.1298 96.7289 25.6754 96.4449C25.2684 96.1899 24.906 95.9904 24.5955 95.7674C24.4962 95.6961 24.4213 95.6454 24.3272 95.5809C23.589 95.0726 23.1764 94.7809 23.1764 94.7809L23.1641 44.6985C23.1641 36.6662 25.8922 29.8446 31.3498 24.2328C36.8065 18.6198 43.4283 15.8145 51.2156 15.8145C59.0026 15.8145 65.6245 18.6302 71.0814 24.2636C76.5381 29.8962 79.2677 36.7322 79.2677 44.7694C79.2668 52.8075 76.5378 59.6421 71.0811 65.2749ZM60.6652 35.0063C58.0739 32.3295 54.9244 30.9916 51.2148 30.9916C47.5049 30.9916 44.3551 32.3295 41.7648 35.0063C39.1738 37.6829 37.8786 40.9367 37.8786 44.7694C37.8786 48.6021 39.1738 51.8556 41.7648 54.5322C44.3551 57.2102 47.5049 58.5484 51.2148 58.5484C54.9238 58.5484 58.0739 57.2102 60.6652 54.5322C63.2555 51.8556 64.5514 48.6021 64.5514 44.7694C64.5514 40.9367 63.2555 37.6829 60.6652 35.0063Z" fill="white"/>
<path d="M116.076 86.223V19.5407C116.076 18.5547 116.449 17.6876 117.196 16.939C117.942 16.1909 118.807 15.8164 119.792 15.8164H138.272C144.414 15.8164 149.649 17.9866 153.976 22.3249C158.303 26.6633 160.467 31.9122 160.467 38.071C160.467 44.1962 158.3 49.4363 153.967 53.7925C149.634 58.1483 144.392 60.3253 138.241 60.3253H127.128C124.681 60.3253 123.458 59.0852 123.458 56.6037V86.2252C123.458 88.707 122.227 89.9471 119.767 89.9471C117.306 89.9473 116.076 88.7062 116.076 86.223ZM123.458 56.6037C123.458 54.1566 124.681 52.9331 127.129 52.9331H138.246C142.325 52.9331 145.819 51.4841 148.725 48.5853C151.632 45.6862 153.086 42.1896 153.086 38.097C153.086 34.005 151.632 30.5007 148.725 27.5839C145.819 24.6684 142.325 23.2096 138.246 23.2096H123.458V56.6037Z" fill="#3B3938"/>
<path d="M202.462 86.2218C202.462 88.7055 201.224 89.9475 198.747 89.9475C196.269 89.9475 195.047 88.7077 195.081 86.2256C191.789 88.7077 188.089 89.9475 183.983 89.9475C178.893 89.9475 174.531 88.138 170.9 84.5178C167.269 80.8979 165.453 76.5385 165.453 71.44C165.453 66.3417 167.269 61.9745 170.9 58.3372C174.531 54.7007 178.893 52.8817 183.983 52.8817C188.089 52.8817 191.789 54.1229 195.081 56.6039C195.081 53.5313 193.995 50.9026 191.823 48.7165C189.651 46.531 187.038 45.4383 183.984 45.4383C181.846 45.4383 179.699 46.1865 177.544 47.6815C175.388 49.1779 174.057 49.9253 173.548 49.9253C172.53 49.9253 171.639 49.5412 170.875 48.773C170.111 48.0055 169.729 47.109 169.729 46.0848C169.729 45.266 170.119 44.3961 170.901 43.4733C173.921 39.8551 178.282 38.0459 183.984 38.0459C189.074 38.0459 193.427 39.8585 197.042 43.4814C200.656 47.1048 202.463 51.4682 202.463 56.572V86.2218H202.462ZM195.081 71.415C195.081 68.3494 193.992 65.726 191.815 63.5454C189.639 61.3654 187.019 60.2747 183.958 60.2747C180.896 60.2747 178.277 61.3654 176.1 63.5454C173.923 65.726 172.835 68.3494 172.835 71.415C172.835 74.4809 173.923 77.1043 176.1 79.2846C178.277 81.4649 180.897 82.5548 183.958 82.5548C187.019 82.5548 189.639 81.4649 191.815 79.2846C193.992 77.1043 195.081 74.4809 195.081 71.415Z" fill="#3B3938"/>
<path d="M264.06 63.9712C264.06 71.15 261.531 77.2738 256.475 82.3438C251.417 87.4135 245.309 89.9479 238.148 89.9479C231.021 89.9479 224.929 87.4143 219.872 82.3463C214.815 77.2785 212.287 71.1563 212.287 63.9792V19.5407C212.287 17.0584 213.526 15.8164 216.004 15.8164C218.447 15.8164 219.669 17.0592 219.669 19.5447V45.8464C224.759 40.6459 230.919 38.0455 238.148 38.0455C245.308 38.0455 251.417 40.5805 256.474 45.6499C261.531 50.7199 264.06 56.8268 264.06 63.9712ZM256.678 63.9712C256.678 58.9001 254.862 54.544 251.231 50.9017C247.599 47.2596 243.239 45.4382 238.148 45.4382C233.091 45.4382 228.747 47.2596 225.116 50.9017C221.484 54.544 219.669 58.9001 219.669 63.9712C219.669 69.0766 221.484 73.45 225.116 77.0926C228.747 80.7346 233.091 82.5549 238.148 82.5549C243.239 82.5549 247.599 80.7346 251.231 77.0926C254.862 73.45 256.678 69.0766 256.678 63.9712Z" fill="#3B3938"/>
<path d="M323.265 63.9712C323.265 71.15 320.737 77.2738 315.68 82.3438C310.622 87.4135 304.514 89.9479 297.354 89.9479C290.227 89.9479 284.135 87.4143 279.078 82.3463C274.02 77.2785 271.492 71.1563 271.492 63.9792V19.5407C271.492 17.0584 272.731 15.8164 275.208 15.8164C277.651 15.8164 278.873 17.0592 278.873 19.5447V45.8464C283.964 40.6459 290.125 38.0455 297.354 38.0455C304.514 38.0455 310.622 40.5805 315.68 45.6499C320.737 50.7199 323.265 56.8268 323.265 63.9712ZM315.884 63.9712C315.884 58.9001 314.066 54.544 310.435 50.9017C306.804 47.2596 302.444 45.4382 297.354 45.4382C292.296 45.4382 287.951 47.2596 284.32 50.9017C280.689 54.544 278.873 58.9001 278.873 63.9712C278.873 69.0766 280.689 73.45 284.32 77.0926C287.951 80.7346 292.296 82.5549 297.354 82.5549C302.444 82.5549 306.804 80.7346 310.435 77.0926C314.068 73.45 315.884 69.0766 315.884 63.9712Z" fill="#3B3938"/>
<path d="M349.175 86.2255C349.175 88.7076 347.936 89.9473 345.461 89.9473C341.422 89.9473 337.951 88.4934 335.048 85.5851C332.149 82.6771 330.697 79.1825 330.697 75.1004V19.5407C330.697 17.0584 331.936 15.8164 334.414 15.8164C336.856 15.8164 338.078 17.0584 338.078 19.5415V75.1057C338.078 77.1463 338.809 78.8985 340.269 80.3611C341.725 81.8236 343.458 82.5549 345.458 82.5549C347.936 82.5549 349.175 83.7784 349.175 86.2255Z" fill="#3B3938"/>
<path d="M393.619 93.6563C393.619 98.7243 391.809 103.078 388.195 106.718C384.58 110.356 380.229 112.177 375.139 112.177C371.946 112.177 368.876 111.343 365.923 109.678C362.869 107.978 360.612 105.752 359.152 102.999C358.78 102.251 358.592 101.588 358.592 101.011C358.592 100.025 358.992 99.1671 359.79 98.4364C360.587 97.7051 361.478 97.3402 362.463 97.3402C363.31 97.3402 364.847 98.5805 367.071 101.062C369.292 103.543 371.982 104.784 375.139 104.784C378.193 104.784 380.806 103.695 382.977 101.521C385.149 99.3451 386.236 96.728 386.236 93.6693V86.2254C382.944 88.7074 379.244 89.9475 375.139 89.9475C370.048 89.9475 365.694 88.1357 362.08 84.5128C358.465 80.8899 356.658 76.526 356.658 71.4219V41.7206C356.658 39.271 357.897 38.0459 360.375 38.0459C362.819 38.0459 364.042 39.271 364.042 41.7206V71.4275C364.042 74.4906 365.126 77.1107 367.297 79.2885C369.469 81.4668 372.084 82.5551 375.139 82.5551C378.193 82.5551 380.806 81.4668 382.977 79.2885C385.149 77.1107 386.236 74.4904 386.236 71.4275V41.7206C386.236 39.271 387.475 38.0459 389.952 38.0459C392.397 38.0459 393.616 39.2702 393.616 41.719V93.6563H393.619Z" fill="#3B3938"/>
</g>
<path d="M150 143.76C150 144.2 149.794 144.659 149.381 145.136C147.873 146.935 145.773 148.385 143.081 149.486C140.551 150.496 138.047 151 135.571 151C130.169 151 125.557 149.046 121.734 145.136C117.911 141.227 116 136.511 116 130.986C116 125.48 117.911 120.773 121.734 116.864C125.575 112.954 130.187 111 135.571 111C138.047 111 140.551 111.505 143.081 112.514C145.773 113.615 147.873 115.056 149.381 116.836C149.794 117.332 150 117.8 150 118.24C150 118.791 149.794 119.277 149.381 119.699C148.986 120.103 148.52 120.305 147.981 120.305C147.568 120.305 147.119 120.094 146.635 119.672C146.24 119.305 145.63 118.772 144.804 118.075C142.166 116.02 139.088 114.992 135.571 114.992C131.264 114.992 127.576 116.561 124.507 119.699C121.456 122.819 119.93 126.582 119.93 130.986C119.93 135.409 121.456 139.19 124.507 142.328C127.576 145.448 131.264 147.008 135.571 147.008C139.088 147.008 142.166 145.981 144.804 143.925C145.199 143.558 145.809 143.026 146.635 142.328C147.119 141.906 147.568 141.695 147.981 141.695C148.52 141.695 148.986 141.906 149.381 142.328C149.794 142.732 150 143.209 150 143.76Z" fill="#3B3938"/>
<path d="M150 143.76C150 144.2 149.794 144.659 149.381 145.136C147.873 146.935 145.773 148.385 143.081 149.486C140.551 150.496 138.047 151 135.571 151C130.169 151 125.557 149.046 121.734 145.136C117.911 141.227 116 136.511 116 130.986C116 125.48 117.911 120.773 121.734 116.864C125.575 112.954 130.187 111 135.571 111C138.047 111 140.551 111.505 143.081 112.514C145.773 113.615 147.873 115.056 149.381 116.836C149.794 117.332 150 117.8 150 118.24C150 118.791 149.794 119.277 149.381 119.699C148.986 120.103 148.52 120.305 147.981 120.305C147.568 120.305 147.119 120.094 146.635 119.672C146.24 119.305 145.63 118.772 144.804 118.075C142.166 116.02 139.088 114.992 135.571 114.992C131.264 114.992 127.576 116.561 124.507 119.699C121.456 122.819 119.93 126.582 119.93 130.986C119.93 135.409 121.456 139.19 124.507 142.328C127.576 145.448 131.264 147.008 135.571 147.008C139.088 147.008 142.166 145.981 144.804 143.925C145.199 143.558 145.809 143.026 146.635 142.328C147.119 141.906 147.568 141.695 147.981 141.695C148.52 141.695 148.986 141.906 149.381 142.328C149.794 142.732 150 143.209 150 143.76Z" stroke="#3B3938" stroke-width="2"/>
<path d="M185 137.487C185 141.221 183.624 144.407 180.874 147.044C178.142 149.682 174.851 151 171 151C167.149 151 163.848 149.682 161.098 147.044C158.366 144.407 157 141.221 157 137.487C157 133.77 158.366 130.593 161.098 127.956C163.848 125.319 167.149 124 171 124C174.851 124 178.142 125.319 180.874 127.956C183.624 130.593 185 133.77 185 137.487ZM180.984 137.487C180.984 134.85 180.003 132.584 178.041 130.69C176.097 128.797 173.75 127.85 171 127.85C168.249 127.85 165.893 128.797 163.931 130.69C161.987 132.584 161.015 134.85 161.015 137.487C161.015 140.142 161.987 142.416 163.931 144.31C165.893 146.204 168.249 147.15 171 147.15C173.75 147.15 176.097 146.204 178.041 144.31C180.003 142.416 180.984 140.142 180.984 137.487Z" fill="#3B3938"/>
<path d="M185 137.487C185 141.221 183.624 144.407 180.874 147.044C178.142 149.682 174.851 151 171 151C167.149 151 163.848 149.682 161.098 147.044C158.366 144.407 157 141.221 157 137.487C157 133.77 158.366 130.593 161.098 127.956C163.848 125.319 167.149 124 171 124C174.851 124 178.142 125.319 180.874 127.956C183.624 130.593 185 133.77 185 137.487ZM180.984 137.487C180.984 134.85 180.003 132.584 178.041 130.69C176.097 128.797 173.75 127.85 171 127.85C168.249 127.85 165.893 128.797 163.931 130.69C161.987 132.584 161.015 134.85 161.015 137.487C161.015 140.142 161.987 142.416 163.931 144.31C165.893 146.204 168.249 147.15 171 147.15C173.75 147.15 176.097 146.204 178.041 144.31C180.003 142.416 180.984 140.142 180.984 137.487Z" stroke="#3B3938" stroke-width="2"/>
<path d="M212 149.062C212 150.354 211.331 151 209.992 151C208.671 151 208.011 150.354 208.011 149.062V133.637C208.011 132.045 207.415 130.682 206.223 129.549C205.049 128.416 203.646 127.85 202.014 127.85C200.363 127.85 198.951 128.416 197.777 129.549C196.603 130.682 196.017 132.045 196.017 133.637V149.062C196.017 150.354 195.347 151 194.008 151C192.67 151 192 150.354 192 149.062V125.912C192 124.637 192.67 124 194.008 124C195.347 124 196.017 124.637 196.017 125.912C197.777 124.637 199.776 124 202.014 124C204.746 124 207.094 124.947 209.057 126.841C211.019 128.717 212 130.982 212 133.637V149.062Z" fill="#3B3938"/>
<path d="M212 149.062C212 150.354 211.331 151 209.992 151C208.671 151 208.011 150.354 208.011 149.062V133.637C208.011 132.045 207.415 130.682 206.223 129.549C205.049 128.416 203.646 127.85 202.014 127.85C200.363 127.85 198.951 128.416 197.777 129.549C196.603 130.682 196.017 132.045 196.017 133.637V149.062C196.017 150.354 195.347 151 194.008 151C192.67 151 192 150.354 192 149.062V125.912C192 124.637 192.67 124 194.008 124C195.347 124 196.017 124.637 196.017 125.912C197.777 124.637 199.776 124 202.014 124C204.746 124 207.094 124.947 209.057 126.841C211.019 128.717 212 130.982 212 133.637V149.062Z" stroke="#3B3938" stroke-width="2"/>
<path d="M238 149.062C238 150.354 237.364 151 236.092 151C234.838 151 234.21 150.354 234.21 149.062V133.637C234.21 132.045 233.645 130.682 232.512 129.549C231.397 128.416 230.064 127.85 228.513 127.85C226.945 127.85 225.603 128.416 224.488 129.549C223.374 130.682 222.816 132.045 222.816 133.637V149.062C222.816 150.354 222.18 151 220.908 151C219.636 151 219 150.354 219 149.062V125.912C219 124.637 219.636 124 220.908 124C222.18 124 222.816 124.637 222.816 125.912C224.488 124.637 226.388 124 228.513 124C231.109 124 233.339 124.947 235.204 126.841C237.068 128.717 238 130.982 238 133.637V149.062Z" fill="#3B3938"/>
<path d="M238 149.062C238 150.354 237.364 151 236.092 151C234.838 151 234.21 150.354 234.21 149.062V133.637C234.21 132.045 233.645 130.682 232.512 129.549C231.397 128.416 230.064 127.85 228.513 127.85C226.945 127.85 225.603 128.416 224.488 129.549C223.374 130.682 222.816 132.045 222.816 133.637V149.062C222.816 150.354 222.18 151 220.908 151C219.636 151 219 150.354 219 149.062V125.912C219 124.637 219.636 124 220.908 124C222.18 124 222.816 124.637 222.816 125.912C224.488 124.637 226.388 124 228.513 124C231.109 124 233.339 124.947 235.204 126.841C237.068 128.717 238 130.982 238 133.637V149.062Z" stroke="#3B3938" stroke-width="2"/>
<path d="M271 143.248C271 143.549 270.91 143.885 270.729 144.257C269.628 146.292 267.958 147.929 265.719 149.168C263.498 150.39 261.187 151 258.786 151C254.994 151 251.744 149.682 249.036 147.044C246.345 144.407 245 141.221 245 137.487C245 133.77 246.345 130.593 249.036 127.956C251.744 125.319 254.994 124 258.786 124C260.14 124 261.557 124.248 263.037 124.743C264.717 125.31 266.36 126.213 267.967 127.452C269.971 128.991 270.973 130.443 270.973 131.806C270.973 132.496 270.648 133.018 269.998 133.372L251.419 143.885C253.369 146.062 255.825 147.15 258.786 147.15C261.891 147.15 264.365 146.045 266.206 143.832C266.441 143.496 266.811 143 267.317 142.345C267.84 141.673 268.382 141.336 268.942 141.336C269.483 141.336 269.962 141.522 270.377 141.894C270.792 142.265 271 142.717 271 143.248ZM266.152 131.115C264.184 128.938 261.728 127.85 258.786 127.85C256.077 127.85 253.757 128.797 251.825 130.69C249.911 132.584 248.954 134.85 248.954 137.487C248.954 138.549 249.117 139.576 249.442 140.566L266.152 131.115Z" fill="#3B3938"/>
<path d="M271 143.248C271 143.549 270.91 143.885 270.729 144.257C269.628 146.292 267.958 147.929 265.719 149.168C263.498 150.39 261.187 151 258.786 151C254.994 151 251.744 149.682 249.036 147.044C246.345 144.407 245 141.221 245 137.487C245 133.77 246.345 130.593 249.036 127.956C251.744 125.319 254.994 124 258.786 124C260.14 124 261.557 124.248 263.037 124.743C264.717 125.31 266.36 126.213 267.967 127.452C269.971 128.991 270.973 130.443 270.973 131.806C270.973 132.496 270.648 133.018 269.998 133.372L251.419 143.885C253.369 146.062 255.825 147.15 258.786 147.15C261.891 147.15 264.365 146.045 266.206 143.832C266.441 143.496 266.811 143 267.317 142.345C267.84 141.673 268.382 141.336 268.942 141.336C269.483 141.336 269.962 141.522 270.377 141.894C270.792 142.265 271 142.717 271 143.248ZM266.152 131.115C264.184 128.938 261.728 127.85 258.786 127.85C256.077 127.85 253.757 128.797 251.825 130.69C249.911 132.584 248.954 134.85 248.954 137.487C248.954 138.549 249.117 139.576 249.442 140.566L266.152 131.115Z" stroke="#3B3938" stroke-width="2"/>
<path d="M302 129.283C302 129.814 301.793 130.283 301.381 130.69C300.985 131.08 300.519 131.274 299.98 131.274C299.818 131.274 298.848 130.708 297.071 129.575C295.311 128.425 293.524 127.85 291.71 127.85C289.017 127.85 286.709 128.797 284.788 130.69C282.884 132.584 281.933 134.85 281.933 137.487C281.933 140.142 282.884 142.416 284.788 144.31C286.709 146.204 289.017 147.15 291.71 147.15C293.506 147.15 295.284 146.584 297.044 145.451C298.822 144.301 299.8 143.726 299.98 143.726C300.501 143.726 300.958 143.93 301.354 144.336C301.767 144.743 301.973 145.204 301.973 145.717C301.973 146.142 301.776 146.593 301.381 147.071C300.339 148.275 298.867 149.239 296.963 149.965C295.185 150.655 293.434 151 291.71 151C287.94 151 284.707 149.682 282.013 147.044C279.338 144.407 278 141.221 278 137.487C278 133.77 279.338 130.593 282.013 127.956C284.707 125.319 287.94 124 291.71 124C293.434 124 295.185 124.345 296.963 125.035C298.867 125.779 300.339 126.752 301.381 127.956C301.793 128.416 302 128.859 302 129.283Z" fill="#3B3938"/>
<path d="M302 129.283C302 129.814 301.793 130.283 301.381 130.69C300.985 131.08 300.519 131.274 299.98 131.274C299.818 131.274 298.848 130.708 297.071 129.575C295.311 128.425 293.524 127.85 291.71 127.85C289.017 127.85 286.709 128.797 284.788 130.69C282.884 132.584 281.933 134.85 281.933 137.487C281.933 140.142 282.884 142.416 284.788 144.31C286.709 146.204 289.017 147.15 291.71 147.15C293.506 147.15 295.284 146.584 297.044 145.451C298.822 144.301 299.8 143.726 299.98 143.726C300.501 143.726 300.958 143.93 301.354 144.336C301.767 144.743 301.973 145.204 301.973 145.717C301.973 146.142 301.776 146.593 301.381 147.071C300.339 148.275 298.867 149.239 296.963 149.965C295.185 150.655 293.434 151 291.71 151C287.94 151 284.707 149.682 282.013 147.044C279.338 144.407 278 141.221 278 137.487C278 133.77 279.338 130.593 282.013 127.956C284.707 125.319 287.94 124 291.71 124C293.434 124 295.185 124.345 296.963 125.035C298.867 125.779 300.339 126.752 301.381 127.956C301.793 128.416 302 128.859 302 129.283Z" stroke="#3B3938" stroke-width="2"/>
<path d="M328 147.091C328 148.449 327.338 149.477 326.014 150.174C324.969 150.725 323.732 151 322.303 151C320.212 151 318.417 150.22 316.919 148.66C315.438 147.082 314.697 145.191 314.697 142.989V126.994H310.908C309.636 126.994 309 126.325 309 124.985C309 123.664 309.636 123.003 310.908 123.003H314.697V113.01C314.697 111.67 315.334 111 316.605 111C317.877 111 318.513 111.67 318.513 113.01V123.003H322.303C323.575 123.003 324.21 123.664 324.21 124.985C324.21 126.325 323.575 126.994 322.303 126.994H318.513V142.989C318.513 144.09 318.879 145.036 319.611 145.825C320.36 146.614 321.257 147.008 322.303 147.008C323.156 147.008 323.976 146.678 324.759 146.017C325.543 145.357 326.118 145.026 326.484 145.026C327.495 145.026 328 145.714 328 147.091Z" fill="#3B3938"/>
<path d="M328 147.091C328 148.449 327.338 149.477 326.014 150.174C324.969 150.725 323.732 151 322.303 151C320.212 151 318.417 150.22 316.919 148.66C315.438 147.082 314.697 145.191 314.697 142.989V126.994H310.908C309.636 126.994 309 126.325 309 124.985C309 123.664 309.636 123.003 310.908 123.003H314.697V113.01C314.697 111.67 315.334 111 316.605 111C317.877 111 318.513 111.67 318.513 113.01V123.003H322.303C323.575 123.003 324.21 123.664 324.21 124.985C324.21 126.325 323.575 126.994 322.303 126.994H318.513V142.989C318.513 144.09 318.879 145.036 319.611 145.825C320.36 146.614 321.257 147.008 322.303 147.008C323.156 147.008 323.976 146.678 324.759 146.017C325.543 145.357 326.118 145.026 326.484 145.026C327.495 145.026 328 145.714 328 147.091Z" stroke="#3B3938" stroke-width="2"/>
</g>
<defs>
<clipPath id="clip0_1112_4432">
<rect width="414" height="153" fill="white"/>
</clipPath>
</defs>
</svg>
